<svg width="4000" height="4000" viewBox="0 0 4000 4000" fill="none" xmlns="http://www.w3.org/2000/svg">
<rect width="4000" height="4000" rx="500" fill="#673AB7"/>
<path d="M3113.88 1628.99C3190.93 1603.34 3275.05 1644.94 3291.98 1724.36C3345.74 1976.52 3324.74 2240.08 3229.85 2482.11C3116.98 2769.96 2906.73 3009.12 2635.7 3157.93C2364.67 3306.74 2050.04 3355.78 1746.58 3296.51C1443.12 3237.24 1170.05 3073.42 974.937 2833.56C779.82 2593.71 675.008 2293.02 678.75 1983.84C682.492 1674.67 794.551 1376.61 995.416 1141.54C1196.28 906.48 1473.23 749.311 1778.03 697.404C2034.31 653.761 2296.63 686.852 2532.56 790.816C2606.87 823.56 2630.47 914.385 2589.68 984.599V984.599C2548.89 1054.81 2459.15 1077.56 2383.83 1047.2C2208.36 976.47 2015.78 955.219 1827.4 987.299C1590.44 1027.65 1375.14 1149.84 1218.98 1332.58C1062.82 1515.32 975.706 1747.05 972.797 1987.4C969.888 2227.76 1051.37 2461.52 1203.06 2647.99C1354.75 2834.46 1567.03 2961.82 1802.95 3007.9C2038.86 3053.98 2283.47 3015.85 2494.17 2900.16C2704.87 2784.47 2868.33 2598.55 2956.07 2374.76C3025.82 2196.86 3044.22 2003.98 3010.69 1817.79C2996.29 1737.87 3036.83 1654.64 3113.88 1628.99V1628.99Z" fill="white"/>
<rect x="1787.02" y="2245.21" width="1544.94" height="249.214" rx="124.607" transform="rotate(-45.8367 1787.02 2245.21)" fill="white"/>
<path d="M2042.49 2327.34C1994.53 2376.69 1915.64 2377.82 1866.29 2329.85L1454.57 1929.73C1405.22 1881.76 1404.09 1802.87 1452.05 1753.52V1753.52C1500.02 1704.17 1578.91 1703.04 1628.26 1751.01L2039.98 2151.14C2089.33 2199.1 2090.45 2277.99 2042.49 2327.34V2327.34Z" fill="white"/>
<circle cx="1964.23" cy="2223.87" r="83.7949" fill="#673AB7"/>
</svg>
