<svg width="3342" height="3342" viewBox="0 0 3342 3342" fill="none" xmlns="http://www.w3.org/2000/svg">
<path d="M2784.88 1299.99C2861.93 1274.35 2946.05 1315.94 2962.98 1395.36C3016.74 1647.52 2995.74 1911.08 2900.85 2153.11C2787.98 2440.97 2577.73 2680.12 2306.7 2828.93C2035.67 2977.74 1721.04 3026.78 1417.58 2967.51C1114.12 2908.25 841.054 2744.42 645.937 2504.56C450.82 2264.71 346.008 1964.02 349.75 1654.85C353.492 1345.67 465.551 1047.61 666.416 812.543C867.281 577.481 1144.23 420.312 1449.03 368.405C1705.31 324.762 1967.63 357.853 2203.56 461.817C2277.87 494.561 2301.47 585.386 2260.68 655.6V655.6C2219.89 725.815 2130.15 748.562 2054.83 718.202C1879.36 647.471 1686.78 626.22 1498.4 658.3C1261.44 698.654 1046.14 820.84 889.98 1003.58C733.823 1186.32 646.706 1418.05 643.797 1658.4C640.888 1898.76 722.371 2132.52 874.059 2318.99C1025.75 2505.46 1238.03 2632.82 1473.95 2678.9C1709.86 2724.98 1954.47 2686.85 2165.17 2571.16C2375.87 2455.47 2539.33 2269.55 2627.07 2045.76C2696.82 1867.86 2715.22 1674.98 2681.69 1488.79C2667.29 1408.87 2707.83 1325.64 2784.88 1299.99V1299.99Z" fill="white"/>
<path d="M1363.01 2151.88C1302.67 2184.96 1226.93 2162.85 1193.85 2102.51L917.894 1599.06C884.816 1538.71 906.921 1462.97 967.269 1429.89V1429.89C1027.62 1396.82 1103.35 1418.92 1136.43 1479.27L1274.41 1730.99L1412.39 1982.72C1445.47 2043.07 1423.36 2118.8 1363.01 2151.88V2151.88Z" fill="white"/>
<path d="M1988.01 2151.88C1927.67 2184.96 1851.93 2162.85 1818.85 2102.51L1542.89 1599.06C1509.82 1538.71 1531.92 1462.97 1592.27 1429.89V1429.89C1652.62 1396.82 1728.35 1418.92 1761.43 1479.27L1899.41 1730.99L2037.39 1982.72C2070.47 2043.07 2048.36 2118.8 1988.01 2151.88V2151.88Z" fill="white"/>
<path d="M1285.27 2149.88C1345.62 2182.96 1421.35 2160.85 1454.43 2100.51L1730.39 1597.06C1763.47 1536.71 1741.36 1460.97 1681.01 1427.89V1427.89C1620.67 1394.82 1544.93 1416.92 1511.85 1477.27L1373.87 1728.99L1235.89 1980.72C1202.82 2041.07 1224.92 2116.8 1285.27 2149.88V2149.88Z" fill="white"/>
<path d="M1899.27 2149.88C1959.62 2182.96 2035.35 2160.85 2068.43 2100.51L2685.56 974.629C2718.64 914.282 2696.54 838.545 2636.19 805.467V805.467C2575.84 772.388 2500.1 794.494 2467.03 854.842L2158.46 1417.78L1849.89 1980.72C1816.82 2041.07 1838.92 2116.8 1899.27 2149.88V2149.88Z" fill="white"/>
<circle cx="1630.79" cy="1586.79" r="83.7949" fill="#673AB7"/>
</svg>
